HIERARCHY
ROOT Hips
{
	OFFSET 0.000000 71.427986 0.000000
	CHANNELS 6 Xposition Yposition Zposition Xrotation Yrotation Zrotation
	JOINT Pelvis
	{
		OFFSET 0.000000 0.000000 0.000000
		CHANNELS 3 Xrotation Yrotation Zrotation
		JOINT LeftUpLeg
		{
			OFFSET 6.797100 -2.508499 -1.318700
			CHANNELS 3 Xrotation Yrotation Zrotation
			JOINT LeftLeg
			{
				OFFSET 0.069008 -29.241863 0.690200
				CHANNELS 3 Xrotation Yrotation Zrotation
				JOINT LeftFoot
				{
					OFFSET -0.069008 -29.568123 -0.266800
					CHANNELS 3 Xrotation Yrotation Zrotation
					JOINT LeftToeBase
					{
						OFFSET 3.145500 -8.631000 16.059900
						CHANNELS 3 Xrotation Yrotation Zrotation
						End Site
						{
							OFFSET 0.000000 18.501587 0.000000
						}
					}
				}
			}
			JOINT Left_ShortSleeve
			{
				OFFSET 0.265923 -10.480953 1.153800
				CHANNELS 3 Xrotation Yrotation Zrotation
				End Site
				{
					OFFSET 1.725763 19.823879 0.000000
				}
			}
		}
		JOINT RightUpLeg
		{
			OFFSET -6.797100 -2.508499 -1.318700
			CHANNELS 3 Xrotation Yrotation Zrotation
			JOINT RightLeg
			{
				OFFSET -0.082453 -29.241932 0.688000
				CHANNELS 3 Xrotation Yrotation Zrotation
				JOINT RightFoot
				{
					OFFSET 0.082453 -29.568058 -0.264600
					CHANNELS 3 Xrotation Yrotation Zrotation
					JOINT RightToeBase
					{
						OFFSET -3.115300 -8.682800 16.113400
						CHANNELS 3 Xrotation Yrotation Zrotation
						End Site
						{
							OFFSET 0.000000 18.567114 0.000000
						}
					}
				}
			}
			JOINT Right_ShortSleeve
			{
				OFFSET -0.265923 -10.480953 1.153800
				CHANNELS 3 Xrotation Yrotation Zrotation
				End Site
				{
					OFFSET -1.725766 19.823910 0.000000
				}
			}
		}
	}
	JOINT Spine
	{
		OFFSET 0.000000 13.368103 0.470500
		CHANNELS 3 Xrotation Yrotation Zrotation
		JOINT Spine1
		{
			OFFSET 0.147000 13.837402 0.538800
			CHANNELS 3 Xrotation Yrotation Zrotation
			JOINT Spine2
			{
				OFFSET 0.168000 16.242897 -1.435500
				CHANNELS 3 Xrotation Yrotation Zrotation
				JOINT Neck
				{
					OFFSET 0.217200 18.631500 -1.679100
					CHANNELS 3 Xrotation Yrotation Zrotation
					JOINT Head
					{
						OFFSET 0.000000 6.599396 1.385900
						CHANNELS 3 Xrotation Yrotation Zrotation
						JOINT Hat
						{
							OFFSET -0.532200 27.220596 -10.096100
							CHANNELS 3 Xrotation Yrotation Zrotation
							End Site
							{
								OFFSET 0.000000 22.029861 0.000000
							}
						}
						JOINT HairD
						{
							OFFSET -10.777400 17.437393 -1.325900
							CHANNELS 3 Xrotation Yrotation Zrotation
							JOINT HairD1
							{
								OFFSET -3.290299 -11.051193 1.062200
								CHANNELS 3 Xrotation Yrotation Zrotation
								End Site
								{
									OFFSET 0.000000 11.579437 0.000000
								}
							}
						}
						JOINT HairB
						{
							OFFSET -10.777400 17.437393 1.467900
							CHANNELS 3 Xrotation Yrotation Zrotation
							JOINT HairB1
							{
								OFFSET -1.561200 -12.956299 3.590200
								CHANNELS 3 Xrotation Yrotation Zrotation
								End Site
								{
									OFFSET 0.000000 13.534866 0.000000
								}
							}
						}
						JOINT HairA
						{
							OFFSET 9.713100 17.437393 1.467900
							CHANNELS 3 Xrotation Yrotation Zrotation
							JOINT HairA1
							{
								OFFSET 1.561200 -12.956299 3.590200
								CHANNELS 3 Xrotation Yrotation Zrotation
								End Site
								{
									OFFSET 0.000000 13.534866 0.000000
								}
							}
						}
						JOINT HairC
						{
							OFFSET 9.713100 17.437393 -1.325900
							CHANNELS 3 Xrotation Yrotation Zrotation
							JOINT HairC1
							{
								OFFSET 3.290300 -11.051193 1.062200
								CHANNELS 3 Xrotation Yrotation Zrotation
								End Site
								{
									OFFSET 0.000000 11.579437 0.000000
								}
							}
						}
					}
				}
				JOINT LeftShoulder
				{
					OFFSET 5.101800 15.108002 -2.763700
					CHANNELS 3 Xrotation Yrotation Zrotation
					JOINT LeftArm
					{
						OFFSET 9.825497 2.506317 -1.597400
						CHANNELS 3 Xrotation Yrotation Zrotation
						JOINT LeftForeArm
						{
							OFFSET 21.966244 0.000000 0.000000
							CHANNELS 3 Xrotation Yrotation Zrotation
							JOINT LeftHand
							{
								OFFSET 33.879036 0.000000 0.000000
								CHANNELS 3 Xrotation Yrotation Zrotation
								JOINT LeftHandThumb1
								{
									OFFSET 6.715286 -2.359680 3.363841
									CHANNELS 3 Xrotation Yrotation Zrotation
									JOINT LeftHandThumb2
									{
										OFFSET 2.507072 -1.447464 1.447461
										CHANNELS 3 Xrotation Yrotation Zrotation
										JOINT LeftHandThumb3
										{
											OFFSET 2.898338 -1.673355 1.673357
											CHANNELS 3 Xrotation Yrotation Zrotation
											End Site
											{
												OFFSET -0.295959 3.727692 -0.131651
											}
										}
									}
								}
								JOINT LeftHandIndex1
								{
									OFFSET 14.190811 -0.254547 3.840278
									CHANNELS 3 Xrotation Yrotation Zrotation
									JOINT LeftHandIndex2
									{
										OFFSET 3.551727 0.000000 -0.000000
										CHANNELS 3 Xrotation Yrotation Zrotation
										JOINT LeftHandIndex3
										{
											OFFSET 2.894196 0.000000 0.000000
											CHANNELS 3 Xrotation Yrotation Zrotation
											End Site
											{
												OFFSET -1.000603 2.690872 0.366626
											}
										}
									}
								}
								JOINT LeftHandMiddle1
								{
									OFFSET 13.776489 0.000000 0.000000
									CHANNELS 3 Xrotation Yrotation Zrotation
									JOINT LeftHandMiddle2
									{
										OFFSET 3.438232 0.000000 0.000000
										CHANNELS 3 Xrotation Yrotation Zrotation
										JOINT LeftHandMiddle3
										{
											OFFSET 3.691551 0.000000 0.000000
											CHANNELS 3 Xrotation Yrotation Zrotation
											End Site
											{
												OFFSET -1.082298 3.499527 0.457670
											}
										}
									}
								}
								JOINT LeftHandRing1
								{
									OFFSET 13.966164 -0.268127 -3.067488
									CHANNELS 3 Xrotation Yrotation Zrotation
									JOINT LeftHandRing2
									{
										OFFSET 3.162567 0.000000 0.000000
										CHANNELS 3 Xrotation Yrotation Zrotation
										JOINT LeftHandRing3
										{
											OFFSET 3.324348 0.000000 0.000000
											CHANNELS 3 Xrotation Yrotation Zrotation
											End Site
											{
												OFFSET -0.861900 3.184998 0.405154
											}
										}
									}
								}
								JOINT LeftHandPinky1
								{
									OFFSET 13.131393 -0.168503 -5.746925
									CHANNELS 3 Xrotation Yrotation Zrotation
									JOINT LeftHandPinky2
									{
										OFFSET 2.849182 0.000000 0.000000
										CHANNELS 3 Xrotation Yrotation Zrotation
										JOINT LeftHandPinky3
										{
											OFFSET 2.805038 0.000000 0.000000
											CHANNELS 3 Xrotation Yrotation Zrotation
											End Site
											{
												OFFSET -0.882500 2.642609 0.325652
											}
										}
									}
								}
							}
							JOINT Left_Sleeve
							{
								OFFSET 6.592125 -0.646545 0.805568
								CHANNELS 3 Xrotation Yrotation Zrotation
								End Site
								{
									OFFSET -0.000179 20.275787 -0.000000
								}
							}
						}
					}
				}
				JOINT RightShoulder
				{
					OFFSET -5.731700 15.108002 -2.763700
					CHANNELS 3 Xrotation Yrotation Zrotation
					JOINT RightArm
					{
						OFFSET -9.825497 2.506317 -1.597400
						CHANNELS 3 Xrotation Yrotation Zrotation
						JOINT RightForeArm
						{
							OFFSET -21.966242 0.000000 0.000000
							CHANNELS 3 Xrotation Yrotation Zrotation
							JOINT RightHand
							{
								OFFSET -33.879032 0.000000 0.000000
								CHANNELS 3 Xrotation Yrotation Zrotation
								JOINT RightHandThumb1
								{
									OFFSET -6.715286 -2.359680 3.363841
									CHANNELS 3 Xrotation Yrotation Zrotation
									JOINT RightHandThumb2
									{
										OFFSET -2.507072 -1.447464 1.447461
										CHANNELS 3 Xrotation Yrotation Zrotation
										JOINT RightHandThumb3
										{
											OFFSET -2.898338 -1.673355 1.673357
											CHANNELS 3 Xrotation Yrotation Zrotation
											End Site
											{
												OFFSET 0.295959 3.727692 -0.131651
											}
										}
									}
								}
								JOINT RightHandIndex1
								{
									OFFSET -14.190811 -0.254547 3.840278
									CHANNELS 3 Xrotation Yrotation Zrotation
									JOINT RightHandIndex2
									{
										OFFSET -3.551727 0.000000 -0.000000
										CHANNELS 3 Xrotation Yrotation Zrotation
										JOINT RightHandIndex3
										{
											OFFSET -2.894196 0.000000 0.000000
											CHANNELS 3 Xrotation Yrotation Zrotation
											End Site
											{
												OFFSET 1.000603 2.690872 0.366626
											}
										}
									}
								}
								JOINT RightHandMiddle1
								{
									OFFSET -13.776489 0.000000 0.000000
									CHANNELS 3 Xrotation Yrotation Zrotation
									JOINT RightHandMiddle2
									{
										OFFSET -3.438232 0.000000 0.000000
										CHANNELS 3 Xrotation Yrotation Zrotation
										JOINT RightHandMiddle3
										{
											OFFSET -3.691551 0.000000 0.000000
											CHANNELS 3 Xrotation Yrotation Zrotation
											End Site
											{
												OFFSET 1.082298 3.499527 0.457670
											}
										}
									}
								}
								JOINT RightHandRing1
								{
									OFFSET -13.966164 -0.268127 -3.067488
									CHANNELS 3 Xrotation Yrotation Zrotation
									JOINT RightHandRing2
									{
										OFFSET -3.162567 0.000000 0.000000
										CHANNELS 3 Xrotation Yrotation Zrotation
										JOINT RightHandRing3
										{
											OFFSET -3.324348 0.000000 0.000000
											CHANNELS 3 Xrotation Yrotation Zrotation
											End Site
											{
												OFFSET 0.861900 3.184998 0.405154
											}
										}
									}
								}
								JOINT RightHandPinky1
								{
									OFFSET -13.131393 -0.168503 -5.746925
									CHANNELS 3 Xrotation Yrotation Zrotation
									JOINT RightHandPinky2
									{
										OFFSET -2.849182 0.000000 0.000000
										CHANNELS 3 Xrotation Yrotation Zrotation
										JOINT RightHandPinky3
										{
											OFFSET -2.805038 0.000000 0.000000
											CHANNELS 3 Xrotation Yrotation Zrotation
											End Site
											{
												OFFSET 0.882500 2.642609 0.325652
											}
										}
									}
								}
							}
							JOINT Right_Sleeve
							{
								OFFSET -6.592125 -0.646545 0.805568
								CHANNELS 3 Xrotation Yrotation Zrotation
								End Site
								{
									OFFSET 0.000179 20.275787 -0.000000
								}
							}
						}
					}
				}
				JOINT Bind_Right_JacketString
				{
					OFFSET -3.534800 11.969597 7.200700
					CHANNELS 3 Xrotation Yrotation Zrotation
					JOINT Bind_Right_JacketString1
					{
						OFFSET -0.319900 -6.102600 2.794100
						CHANNELS 3 Xrotation Yrotation Zrotation
						End Site
						{
							OFFSET 0.000000 6.719452 0.000000
						}
					}
				}
				JOINT Bind_Left_JacketString
				{
					OFFSET 2.904800 11.969597 7.200700
					CHANNELS 3 Xrotation Yrotation Zrotation
					JOINT Bind_Left_JacketString1
					{
						OFFSET 0.364800 -5.904503 3.186800
						CHANNELS 3 Xrotation Yrotation Zrotation
						End Site
						{
							OFFSET 0.000000 6.719513 0.000000
						}
					}
				}
				JOINT HairE
				{
					OFFSET 5.915200 17.612701 -11.592200
					CHANNELS 3 Xrotation Yrotation Zrotation
					JOINT HairE1
					{
						OFFSET 0.289200 -7.171898 -1.284500
						CHANNELS 3 Xrotation Yrotation Zrotation
						End Site
						{
							OFFSET 0.000000 7.291756 0.000000
						}
					}
				}
				JOINT HairF
				{
					OFFSET -0.864800 17.612701 -11.592200
					CHANNELS 3 Xrotation Yrotation Zrotation
					JOINT HairF1
					{
						OFFSET 0.000000 -14.087097 -2.127501
						CHANNELS 3 Xrotation Yrotation Zrotation
						End Site
						{
							OFFSET 0.000000 14.246841 0.000000
						}
					}
				}
				JOINT HairG
				{
					OFFSET -8.087700 17.612701 -11.592200
					CHANNELS 3 Xrotation Yrotation Zrotation
					JOINT HairG1
					{
						OFFSET -0.293600 -6.081398 -0.910100
						CHANNELS 3 Xrotation Yrotation Zrotation
						End Site
						{
							OFFSET 0.000000 6.156120 0.000000
						}
					}
				}
			}
		}
	}
	JOINT Pouch
	{
		OFFSET 0.000000 4.394501 10.847300
		CHANNELS 3 Xrotation Yrotation Zrotation
		End Site
		{
			OFFSET 0.000000 21.880577 0.000000
		}
	}
	JOINT Bag
	{
		OFFSET -13.229000 4.813004 -0.593300
		CHANNELS 3 Xrotation Yrotation Zrotation
		End Site
		{
			OFFSET 0.000000 21.880577 0.000000
		}
	}
	JOINT OccupyGuyFacialAnim_Joint
	{
		OFFSET 1.000000 -70.206398 -1.655000
		CHANNELS 3 Xrotation Yrotation Zrotation
		End Site
		{
			OFFSET 0.000000 21.880577 0.000000
		}
	}
}
MOTION
Frames: 5
Frame Time: 0.033333
0.210079 67.556030 1.131183 -17.875481 17.625428 30.052785 -0.000001 0.000002 0.000001 7.212911 0.910487 -20.422344 19.803577 8.532986 2.172067 -7.702038 6.650634 -6.609030 0.000000 0.000000 -0.000000 -0.000000 -0.000003 -0.000000 -23.068223 -2.225941 -17.094575 49.004859 -3.393664 -10.169232 -19.421004 -0.085044 -0.852295 0.000000 -0.000000 0.000000 -0.000003 0.000000 -0.000000 2.618701 -0.268152 2.394563 2.946846 -0.030049 4.560258 2.988761 0.228609 4.518887 9.344319 -2.736534 -8.716030 -0.861207 -8.255805 -10.367206 -0.000000 0.000000 0.000001 -0.000000 0.000000 0.000001 -0.000000 0.000000 0.000001 -0.000000 0.000000 -0.000000 -0.000001 -0.000001 0.000001 -0.000000 0.000000 -0.000000 -0.000001 -0.000001 0.000001 -0.000000 0.000000 0.000001 -0.000000 0.000000 0.000001 8.775535 0.708222 -7.138560 -4.794157 11.513290 -86.084235 -0.000000 -21.655899 -0.000007 6.488784 2.025214 -11.100114 1.088411 1.832392 -2.794848 7.042989 35.401014 4.409884 -0.000002 0.000002 0.000005 -1.213302 4.991635 -39.613256 0.406617 2.874969 -21.111529 0.000000 -0.000001 -0.000000 1.131522 8.862783 -48.597940 1.002973 4.119670 -34.939863 -0.000001 0.000002 -0.000003 4.165344 11.657868 -47.780554 2.037789 4.180231 -44.625806 -0.000001 -0.000000 -0.000003 6.779542 18.495182 -52.322565 1.623087 4.342990 -49.239056 -0.000000 0.000001 -0.000004 -0.000002 -0.000000 0.000001 4.130090 13.434079 -19.617611 21.579955 -10.103695 83.031625 0.000009 22.115478 -0.000018 14.638974 -2.634426 6.713685 -1.588481 1.712038 -5.678724 14.030505 -35.534220 -6.927907 0.000004 0.000001 0.000002 0.075890 -0.885347 1.674890 0.272920 -2.489031 17.062699 0.000002 -0.000001 -0.000003 -0.308180 -3.831961 13.743584 0.804180 -3.801738 31.179096 0.000001 0.000000 0.000001 0.825467 -7.846680 26.118797 0.908340 -2.915266 27.558094 -0.000001 -0.000003 0.000003 -5.302494 -15.945777 35.254916 0.453533 -2.604455 28.272600 -0.000000 0.000003 -0.000001 0.000002 0.000001 0.000001 0.000000 0.000000 -0.000002 -0.000000 0.000000 0.000002 0.000000 0.000000 -0.000003 0.000000 0.000000 -0.000003 0.000000 0.000000 -0.000002 -0.000000 0.000000 0.000002 0.000000 0.000000 -0.000003 0.000000 0.000000 -0.000003 0.000000 0.000000 -0.000002 -0.000000 0.000000 0.000002 -0.000001 0.000002 0.000001 -0.000001 0.000002 0.000001 -0.000001 0.000002 0.000001 
0.133614 67.531303 1.169426 -17.829872 17.432352 30.049076 -0.000000 0.000001 -0.000000 7.206624 0.971557 -20.421287 19.895276 8.531267 2.223367 -7.746586 6.770241 -6.732147 -0.000000 0.000002 -0.000000 0.000000 -0.000000 -0.000000 -23.394574 -1.992484 -16.913307 50.169502 -4.165111 -10.238212 -22.139558 -0.051477 -0.720684 0.000000 0.000001 0.000000 0.000003 0.000000 -0.000002 2.672450 -0.275063 2.265050 2.975592 -0.050108 4.527192 3.018374 0.203878 4.486424 9.357416 -2.799638 -8.101498 -0.694865 -8.469529 -9.059589 0.000000 0.000001 0.000000 0.000000 0.000001 0.000000 0.000000 0.000001 -0.000000 0.000000 0.000001 -0.000000 -0.000000 0.000001 -0.000000 0.000000 0.000001 -0.000000 -0.000000 0.000001 -0.000000 0.000000 0.000001 0.000000 0.000000 0.000001 0.000000 8.768410 0.678425 -7.098091 -4.590236 11.530257 -86.086810 -0.000002 -22.115355 -0.000004 6.618451 1.908449 -11.114783 0.792824 1.498091 -2.868540 6.938580 35.163907 4.473175 0.000003 0.000002 0.000002 -1.282632 4.951559 -39.842956 0.405583 2.872295 -21.082984 0.000003 -0.000000 0.000001 1.090297 8.830735 -48.741036 1.002793 4.119403 -34.936670 0.000000 0.000002 -0.000003 4.161491 11.642656 -47.932014 2.040532 4.182518 -44.661630 0.000000 0.000001 -0.000002 6.741837 18.460796 -52.284234 1.620194 4.340042 -49.197969 -0.000000 -0.000001 -0.000001 0.000000 0.000001 -0.000003 4.084860 13.926168 -19.147568 21.694588 -10.394033 82.700511 0.000003 22.330096 -0.000021 14.942787 -2.328817 6.243481 -1.631335 1.849765 -5.861034 14.110212 -35.670168 -6.898967 -0.000002 -0.000001 -0.000000 0.242591 -1.419663 1.962447 0.266074 -2.466595 16.830392 -0.000001 -0.000000 -0.000002 -0.301865 -3.870883 13.790826 0.806956 -3.806514 31.234605 -0.000003 -0.000000 -0.000001 0.794410 -7.774722 26.126093 0.909993 -2.917795 27.588290 -0.000001 -0.000001 -0.000004 -5.340568 -15.872477 35.211391 0.454875 -2.607514 28.305810 0.000001 0.000002 0.000001 0.000002 -0.000000 0.000001 -0.000001 -0.000001 -0.000001 -0.000001 -0.000001 -0.000002 -0.000001 -0.000001 0.000000 -0.000001 -0.000001 0.000000 -0.000001 -0.000001 -0.000001 -0.000001 -0.000001 -0.000001 -0.000001 -0.000001 0.000000 -0.000001 -0.000001 0.000000 -0.000001 -0.000001 -0.000001 -0.000001 -0.000001 -0.000001 -0.000000 0.000001 -0.000000 -0.000000 0.000001 -0.000000 -0.000000 0.000001 -0.000000 
0.035831 67.504944 1.205913 -17.781021 17.368119 30.007019 -0.000000 0.000000 0.000000 7.132334 1.129702 -20.309508 20.071889 8.517780 2.265877 -7.811162 6.718925 -6.865833 0.000000 0.000003 -0.000000 -0.000000 0.000002 0.000000 -23.651333 -1.678728 -16.582842 51.158694 -5.080545 -10.270783 -24.724726 -0.007938 -0.542523 -0.000001 0.000002 0.000000 0.000002 0.000001 -0.000002 2.686024 -0.286015 2.139961 2.971870 -0.077406 4.502868 3.015990 0.170399 4.463169 9.367496 -2.847619 -7.634098 -0.641533 -8.552534 -8.633621 -0.000000 -0.000001 0.000002 -0.000000 -0.000001 0.000002 -0.000000 -0.000001 0.000001 -0.000000 -0.000001 -0.000000 -0.000000 -0.000001 -0.000002 -0.000000 -0.000001 -0.000000 -0.000000 -0.000001 -0.000002 -0.000000 -0.000001 0.000002 -0.000000 -0.000001 0.000002 8.733018 0.532196 -6.919922 -4.304320 11.482667 -86.193613 0.000008 -22.457198 0.000016 7.709928 1.568414 -11.084090 0.449351 1.123540 -3.019601 6.811013 34.871282 4.550288 0.000001 -0.000001 -0.000005 -1.342501 4.943950 -40.229937 0.404129 2.868517 -21.042833 0.000001 0.000001 0.000002 1.055086 8.809836 -49.042025 1.001941 4.118122 -34.921207 0.000000 0.000000 0.000001 4.181765 11.643946 -48.181295 2.042316 4.184000 -44.684952 -0.000001 -0.000000 -0.000003 6.746479 18.423749 -52.435188 1.615692 4.335440 -49.133837 -0.000000 -0.000001 0.000003 -0.000002 0.000003 -0.000002 4.061137 14.286376 -18.554018 21.497452 -10.853010 82.421354 -0.000005 22.109498 -0.000015 15.071446 -1.802186 5.722656 -1.668498 1.963786 -6.000155 14.160732 -35.756074 -6.880553 0.000000 0.000000 -0.000000 0.409281 -1.843537 2.118591 0.258982 -2.442957 16.585861 0.000001 -0.000001 0.000000 -0.297291 -3.884177 13.762141 0.808233 -3.808724 31.260048 0.000001 -0.000003 0.000000 0.770467 -7.719266 26.069234 0.911141 -2.919536 27.609259 -0.000003 -0.000000 -0.000003 -5.365293 -15.835099 35.128797 0.455665 -2.609340 28.325727 -0.000001 0.000001 0.000001 0.000003 -0.000000 -0.000001 -0.000002 -0.000003 -0.000001 -0.000002 -0.000003 0.000000 -0.000002 -0.000003 -0.000001 -0.000002 -0.000003 -0.000001 -0.000002 -0.000003 -0.000001 -0.000002 -0.000003 0.000001 -0.000002 -0.000003 -0.000001 -0.000002 -0.000003 -0.000001 -0.000002 -0.000003 -0.000001 -0.000002 -0.000003 0.000001 -0.000000 0.000000 0.000000 -0.000000 0.000000 0.000000 -0.000000 0.000000 0.000000 
-0.078186 67.477890 1.244581 -17.778347 17.438537 29.929650 0.000001 0.000001 0.000000 7.004206 1.303166 -20.118853 20.340751 8.524713 2.360836 -7.899083 6.548316 -7.041834 0.000000 0.000002 -0.000000 0.000001 0.000001 -0.000000 -23.717618 -1.298052 -16.121015 51.889702 -6.319811 -10.256294 -26.952324 0.030560 -0.247258 0.000001 -0.000001 -0.000000 0.000003 0.000000 -0.000002 2.672251 -0.306002 2.036217 2.948918 -0.116182 4.482556 2.995479 0.126654 4.443917 9.371072 -2.864534 -7.469398 -0.662003 -8.560082 -8.722651 0.000001 0.000001 0.000002 0.000001 0.000001 0.000002 0.000001 0.000001 0.000002 0.000001 0.000001 0.000002 0.000000 -0.000001 0.000002 0.000001 0.000001 0.000002 0.000000 -0.000001 0.000002 0.000001 0.000001 0.000002 0.000001 0.000001 0.000002 8.686215 0.334505 -6.670002 -3.992937 11.417258 -86.361144 0.000007 -22.689316 0.000005 9.283483 1.022690 -10.900621 0.222111 0.864350 -3.052235 6.715068 34.648990 4.608147 0.000001 -0.000002 -0.000001 -1.371429 4.952643 -40.502571 0.403201 2.866100 -21.017219 -0.000000 0.000002 0.000000 1.032448 8.798184 -49.274716 1.000569 4.116088 -34.896591 -0.000000 0.000002 -0.000001 4.207730 11.656532 -48.352289 2.042071 4.183788 -44.681691 -0.000000 0.000002 -0.000005 6.772332 18.405615 -52.609580 1.611708 4.331361 -49.077030 -0.000000 0.000001 -0.000002 0.000002 0.000003 -0.000003 4.049434 14.491643 -17.844300 21.082436 -11.275205 82.056076 -0.000007 21.464354 -0.000001 15.149004 -1.234159 5.270209 -1.693983 2.047622 -6.109722 14.183402 -35.794484 -6.872242 -0.000001 0.000002 0.000000 0.534376 -2.205211 2.308145 0.251685 -2.418247 16.330514 -0.000001 0.000001 0.000000 -0.301700 -3.852155 13.708701 0.807776 -3.807943 31.251138 0.000002 -0.000004 -0.000001 0.750593 -7.672920 25.985275 0.911764 -2.920494 27.620665 -0.000001 0.000000 -0.000004 -5.384936 -15.810587 35.035445 0.456230 -2.610658 28.339899 -0.000000 0.000003 -0.000001 0.000002 -0.000000 -0.000001 0.000001 0.000001 -0.000001 -0.000000 0.000000 0.000000 0.000001 0.000001 -0.000001 0.000001 0.000001 -0.000001 0.000001 0.000001 -0.000001 -0.000000 0.000000 0.000000 0.000001 0.000001 -0.000001 0.000001 0.000001 -0.000001 0.000001 0.000001 -0.000001 -0.000000 0.000000 0.000000 0.000001 0.000001 0.000000 0.000001 0.000001 0.000000 0.000001 0.000001 0.000000 
-0.199532 67.444443 1.281448 -17.838289 17.618862 29.836001 -0.000000 -0.000002 -0.000001 6.819453 1.474620 -19.871867 20.738348 8.563377 2.499341 -8.033080 6.260784 -7.255081 -0.000000 0.000000 -0.000000 0.000000 -0.000001 0.000000 -23.745410 -1.096641 -15.747030 52.554908 -7.466414 -10.236379 -28.995697 0.050890 0.081525 0.000001 -0.000000 -0.000000 0.000004 0.000000 -0.000000 2.648608 -0.330142 1.958515 2.926692 -0.158914 4.465578 2.976212 0.082084 4.427572 9.367364 -2.847063 -7.563084 -0.737173 -8.526258 -9.082245 0.000001 -0.000001 -0.000001 0.000001 -0.000001 -0.000001 0.000001 -0.000001 -0.000002 0.000001 -0.000001 -0.000002 0.000001 -0.000001 -0.000000 0.000001 -0.000001 -0.000002 0.000001 -0.000001 -0.000000 0.000001 -0.000001 -0.000001 0.000001 -0.000001 -0.000001 8.649071 0.173112 -6.450145 -3.727557 11.347994 -86.512358 -0.000002 -22.857851 0.000002 10.566267 0.471369 -10.605748 0.251963 0.859542 -2.849531 6.693305 34.598262 4.621235 0.000000 0.000000 -0.000006 -1.366510 4.948424 -40.436414 0.403245 2.866227 -21.018582 0.000001 -0.000001 -0.000000 1.038636 8.801839 -49.225508 0.999941 4.115161 -34.885427 0.000002 0.000002 0.000004 4.217530 11.668733 -48.316355 2.041164 4.183041 -44.669837 -0.000001 0.000000 -0.000003 6.774872 18.412508 -52.595807 1.612123 4.331787 -49.082928 -0.000000 -0.000001 -0.000001 -0.000002 0.000000 -0.000001 4.034807 14.520142 -17.064736 20.498286 -11.535033 81.571331 -0.000004 20.510536 -0.000002 15.261703 -0.763715 4.939640 -1.704497 2.092495 -6.183462 14.177255 -35.784136 -6.874425 -0.000000 -0.000002 0.000000 0.556121 -2.474362 2.720461 0.244496 -2.393554 16.075629 -0.000000 0.000001 0.000000 -0.326776 -3.748452 13.736308 0.804784 -3.802804 31.191353 0.000001 -0.000001 -0.000003 0.735949 -7.638626 25.941699 0.911685 -2.920381 27.619173 -0.000002 -0.000002 0.000001 -5.396966 -15.789592 35.008835 0.456283 -2.610804 28.341342 0.000000 0.000001 0.000004 0.000001 -0.000000 -0.000000 0.000000 0.000001 -0.000003 -0.000001 -0.000001 -0.000004 0.000000 0.000001 -0.000001 0.000000 0.000001 -0.000001 0.000000 0.000001 -0.000003 -0.000001 -0.000001 -0.000003 0.000000 0.000001 -0.000001 0.000000 0.000001 -0.000001 0.000000 0.000001 -0.000003 -0.000001 -0.000001 -0.000003 -0.000000 -0.000002 -0.000001 -0.000000 -0.000002 -0.000001 -0.000000 -0.000002 -0.000001 
